<?xml version="1.0" encoding="UTF-8"?>
<svg width="82px" height="82px" viewBox="0 0 82 82" version="1.1" xmlns="http://www.w3.org/2000/svg" xmlns:xlink="http://www.w3.org/1999/xlink" jetway-hooks="{}">
    <title>16-internetSMBIcons</title>
    <g jetway-hook-id="9B4EE40A-F85B-4104-9759-7853A5B24A3F" id="SMB-Page" stroke="none" stroke-width="1" fill="none" fill-rule="evenodd">
        <g jetway-hook-id="7F411933-0D69-47FD-9854-2AF83BC05A01" id="SMB--Reskin--Icon-Design-Updates-R2" transform="translate(-679.000000, -944.000000)">
            <g jetway-hook-id="4B4D3AA9-19AA-495E-9B3B-896C047E3019" id="16-internet" transform="translate(679.000000, 944.000000)">
                <g jetway-hook-id="2E771850-C41E-44F9-8D49-41A71C722492">
                    <path d="M81.9235135,43.0597889 L63.5371638,43.0597889 C63.415067,48.6725875 62.7806422,54.0185679 61.7272576,58.9174473 C66.9271471,61.1529517 71.0928044,63.7514251 73.7885114,65.6528057 C78.5502887,59.2876276 81.5021597,51.5138415 81.9235135,43.0597889" jetway-hook-id="EF376C05-F547-48F3-9EA0-223FABC2C226" id="Fill-2" fill="#00AC47"></path>
                    <path d="M81.9235135,38.9402111 C81.5021597,30.4861585 78.5502887,22.7123724 73.7885114,16.3447906 C71.0928044,18.2485749 66.9271471,20.8470483 61.7272576,23.0825527 C62.7806422,27.9814321 63.415067,33.3274125 63.5371638,38.9402111 L81.9235135,38.9402111 Z" jetway-hook-id="DF45039F-BC12-454A-B5AD-ACFC04B0564B" id="Fill-4" fill="#C7EBD4"></path>
                    <path d="M51.9066007,1.33085479 C55.603023,5.43889454 58.6650206,11.5709071 60.7215147,18.9817242 C65.1385479,17.0178457 68.7272377,14.8135903 71.1380521,13.147779 C66.0171664,7.56382557 59.3952077,3.41011423 51.9066007,1.33085479" jetway-hook-id="151573DE-DF27-4AFD-88B4-5E51EA0C3CF6" id="Fill-6" fill="#C7EBD4"></path>
                    <path d="M71.1385309,68.852221 C68.7277165,67.1864097 65.1390267,64.9821543 60.7195994,63.0182758 C58.6654994,70.4290929 55.6035019,76.5611055 51.9070795,80.6691452 C59.3956865,78.5898858 66.0152512,74.4361744 71.1385309,68.852221" jetway-hook-id="5A8166D1-9BEA-4AC5-94B8-4F844EC4933C" id="Fill-8" fill="#006825"></path>
                    <path d="M43.0514665,54.4389869 C48.421334,54.6817675 53.4249109,55.8451913 57.8658847,57.4052368 C58.7875963,52.9077866 59.2975302,48.06179 59.4100508,43.0595485 L43.0514665,43.0595485 L43.0514665,54.4389869 Z" jetway-hook-id="6A44E69C-2C62-4636-A2EF-4C347225C651" id="Fill-10" fill="#00AC47"></path>
                    <path d="M43.0514665,38.9402111 L59.4100508,38.9402111 C59.2975302,33.9379696 58.7875963,29.091973 57.8658847,24.5945228 C53.4249109,26.1545684 48.421334,27.3179921 43.0514665,27.5607727 L43.0514665,38.9402111 Z" jetway-hook-id="EB81773A-C66F-4C2D-A69A-33B529AA3870" id="Fill-12" fill="#C7EBD4"></path>
                    <path d="M43.0514665,81.8640584 C46.7143721,80.820823 50.3533372,77.0853673 53.2860557,71.1985391 C54.7368536,68.2851721 55.9434578,65.0016249 56.9010802,61.4608744 C52.7402109,59.9561155 48.0382851,58.8672086 43.0514665,58.6148129 L43.0514665,81.8640584 Z" jetway-hook-id="BDA5D07F-5C03-45E1-ACB9-8C2D1AA8E45F" id="Fill-14" fill="#006825"></path>
                    <path d="M43.0514665,23.3861486 C48.0382851,23.1337529 52.7402109,22.044846 56.9010802,20.5376833 C55.9434578,16.9969329 54.7368536,13.7157894 53.2860557,10.8024224 C50.3533372,4.91559421 46.7143721,1.17773476 43.0514665,0.136903152 L43.0514665,23.3861486 Z" jetway-hook-id="D34CC8A5-5E0D-46AE-8A12-3A0F2EE38081" id="Fill-16" fill="#C7EBD4"></path>
                    <path d="M28.7141837,10.8014609 C27.2633858,13.7148279 26.0567816,16.9983751 25.1015533,20.5391256 C29.2600285,22.0438845 33.9643484,23.1327914 38.9487729,23.3851871 L38.9487729,0.135941645 C35.2858673,1.17917702 31.6469022,4.9146327 28.7141837,10.8014609" jetway-hook-id="DBA8ECF9-F5B9-4AE3-A4B5-BA9B196CE98E" id="Fill-18" fill="#C7EBD4"></path>
                    <path d="M30.0933993,1.33085479 C22.6047923,3.41011423 15.9828336,7.56382557 10.8619479,13.147779 C13.2727623,14.8135903 16.8590581,17.0178457 21.2784853,18.9817242 C23.3349794,11.5709071 26.396977,5.43889454 30.0933993,1.33085479" jetway-hook-id="34A2E78F-BC97-4E9A-A45A-D3F4BA7EB4A3" id="Fill-20" fill="#C7EBD4"></path>
                    <path d="M20.2717848,58.9179281 C19.2207943,54.0190486 18.5863694,48.6730683 18.4618785,43.0602697 L0.0779229371,43.0602697 C0.496882727,51.5119184 3.45114776,59.2881084 8.21053098,65.6532864 C10.908632,63.7519058 15.0718953,61.1534325 20.2717848,58.9179281" jetway-hook-id="D67BB451-E0E6-41F1-916C-DE8BBD6B83EF" id="Fill-22" fill="#00AC47"></path>
                    <path d="M38.9485335,81.8640584 L38.9485335,58.6148129 C33.964109,58.8672086 29.2597891,59.9561155 25.1013139,61.4608744 C26.0565422,65.0016249 27.2631464,68.2851721 28.7139443,71.1985391 C31.6466628,77.0853673 35.2856279,80.820823 38.9485335,81.8640584" jetway-hook-id="64F63F25-835F-4AA7-8382-BB08E31359B3" id="Fill-24" fill="#006825"></path>
                    <path d="M30.0933993,80.6691452 C26.396977,76.5611055 23.3349794,70.4290929 21.2784853,63.0182758 C16.8590581,64.9821543 13.2727623,67.1864097 10.8619479,68.852221 C15.9828336,74.4361744 22.6047923,78.5898858 30.0933993,80.6691452" jetway-hook-id="C8608987-A913-4E41-907F-F1B4D67E9504" id="Fill-26" fill="#006825"></path>
                    <path d="M0.0776835315,38.9402111 L18.4616391,38.9402111 C18.58613,33.3274125 19.2205549,27.9814321 20.2715454,23.0825527 C15.0716559,20.8470483 10.9083926,18.2485749 8.21029157,16.3447906 C3.45090836,22.7123724 0.496643322,30.4861585 0.0776835315,38.9402111" jetway-hook-id="9698A906-18D7-4D62-8601-C0C7BE41377A" id="Fill-28" fill="#C7EBD4"></path>
                    <path d="M24.1329183,57.4061983 C28.571498,55.8461528 33.579863,54.682729 38.9473364,54.4399484 L38.9473364,43.06051 L22.5863581,43.06051 C22.7036669,48.0627515 23.2136008,52.9063443 24.1329183,57.4061983" jetway-hook-id="247B62B8-C85D-419E-ACD0-FEAC343E9649" id="Fill-30" fill="#00AC47"></path>
                    <path d="M38.9485335,27.5610131 C33.58106,27.3182325 28.572695,26.1548087 24.1341153,24.5947632 C23.2124037,29.0922134 22.7024698,33.93821 22.5875551,38.9404515 L38.9485335,38.9404515 L38.9485335,27.5610131 Z" jetway-hook-id="500EBBBE-28DE-4613-936B-39917A39680D" id="Fill-32" fill="#C7EBD4"></path>
                </g>
            </g>
        </g>
    </g>
</svg>