<?xml version="1.0" encoding="UTF-8"?>
<svg width="117px" height="75px" viewBox="0 0 117 75" version="1.1" xmlns="http://www.w3.org/2000/svg" xmlns:xlink="http://www.w3.org/1999/xlink" jetway-hooks="{}">
    <title>Group 21SMB icons2</title>
    <g jetway-hook-id="9B4EE40A-F85B-4104-9759-7853A5B24A3F" id="SMB-Page" stroke="none" stroke-width="1" fill="none" fill-rule="evenodd">
        <g jetway-hook-id="7F411933-0D69-47FD-9854-2AF83BC05A01" id="SMB--Reskin--Icon-Design-Updates-R2" transform="translate(-1114.000000, -2357.000000)" fill-rule="nonzero">
            <g jetway-hook-id="7A8D8833-C395-4991-9DF7-5ECB001CD223" id="Group-21" transform="translate(1114.000000, 2357.000000)">
                <g jetway-hook-id="AE25907C-1342-4FD2-8211-CA111B252BA8" id="noun_chat_927352" transform="translate(39.000000, 17.000000)">
                    <path d="M69.5675676,0 C74.2026754,0 78,2.94036747 78,6.52945236 L78,39.1766897 C78,42.705224 74.3297053,45.6067579 69.8014003,45.703643 L71.101737,52.4921299 C72.4665012,56.3802909 69.7369727,57.6763445 69.7369727,57.6763445 C69.7369727,57.6763445 69.7313332,57.6790223 69.7203105,57.683891 L69.6713492,57.7045831 C69.2406948,57.8798571 66.7593052,58.736752 64.2779156,56.3802909 L51.308,45.706 L8.43243243,45.706142 C3.79732459,45.706142 0,42.7657664 0,39.1766897 L0,6.52945236 C0,2.94036747 3.79732459,0 8.43243243,0 L69.5675676,0 Z" jetway-hook-id="FFA1D73F-F7A0-4C49-9451-701C59BE9F85" id="Combined-Shape" fill="#0D652D"></path>
                    <path d="M69.6942894,4 C72.1169082,4 74,5.38538621 74,7.16770121 L74,7.16770121 L74,38.454707 C74,40.1115613 72.6568542,41.454707 71,41.454707 L71,41.454707 L65.5913846,41.454 L67.1003983,46.9122212 C68.3252987,51.7450866 67.8356325,52.6744419 67.1003983,52.953303 C66.3651742,53.2321641 65.2401601,52.1895464 64.6505975,51.7450866 L52.4783846,41.454 L5.95599623,41.4544889 C4.35843147,41.4352261 3.06760433,40.170651 2.99535162,38.5948581 L2.99238457,38.4185367 L3.34690989,9.01598983 L3.34690989,9.01598983 L3.34723163,8.69072075 C3.35430985,6.30839145 3.51710886,4.02431283 7.2614861,4 L7.2614861,4 Z" jetway-hook-id="10B2E1F8-4C89-4F5A-9AA6-9AD476AFC38D" id="Combined-Shape" fill="#FFFFFF"></path>
                </g>
                <g jetway-hook-id="A4E66ACD-3DEE-4577-B6D5-AB42A918D1E2" id="noun_chat_927352" transform="translate(39.000000, 28.000000) scale(-1, 1) translate(-39.000000, -28.000000) ">
                    <path d="M69.5675676,0 C74.2026754,0 78,2.94036747 78,6.52945236 L78,39.1766897 C78,41.9221538 75.7780014,44.2880314 72.6587224,45.2485479 L73.617866,50.2565902 C74.8895782,53.8796492 72.6062768,55.2520201 72.2890056,55.4223188 L72.2531017,55.4408048 L72.2531017,55.4408048 C72.2531017,55.4408048 72.2474622,55.4434826 72.2364395,55.4483513 L72.1874782,55.4690433 C71.7568238,55.6443173 69.2754342,56.5012123 66.7940447,54.1447511 L56.541,45.706 L8.43243243,45.706142 C3.79732459,45.706142 0,42.7657664 0,39.1766897 L0,6.52945236 C0,2.94036747 3.79732459,0 8.43243243,0 L69.5675676,0 Z" jetway-hook-id="CA8FF046-9C5F-496C-818B-6EC891FCAB31" id="Combined-Shape" fill="#34A853"></path>
                    <path d="M69.6942894,4 C72.1169082,4 74,5.38538621 74,7.16770121 L74,7.16770121 L74,40.454707 C74,41.0069918 73.5522847,41.454707 73,41.454707 L73,41.454707 L68.1443846,41.454 L69.1003983,44.9122212 C70.3252987,49.7450866 69.8356325,50.6744419 69.1003983,50.953303 C68.3651742,51.2321641 67.2401601,50.1895464 66.6505975,49.7450866 L56.8443846,41.454 L3.95584909,41.4546343 C3.44305053,41.4484512 3.02506433,41.057343 2.97329971,40.559344 L2.96797854,40.4426502 L3.34690989,9.01598983 L3.34690989,9.01598983 L3.34723163,8.69072075 C3.35430985,6.30839145 3.51710886,4.02431283 7.2614861,4 L7.2614861,4 Z" jetway-hook-id="18252BFF-C444-49CB-8CAE-4211EC3C2743" id="Combined-Shape" fill="#FFFFFF"></path>
                </g>
            </g>
        </g>
    </g>
</svg>