<?xml version="1.0" encoding="UTF-8"?>
<svg width="146px" height="74px" viewBox="0 0 146 74" version="1.1" xmlns="http://www.w3.org/2000/svg" xmlns:xlink="http://www.w3.org/1999/xlink" jetway-hooks="{}">
    <title>Group 18SMBIcons</title>
    <g jetway-hook-id="9B4EE40A-F85B-4104-9759-7853A5B24A3F" id="SMB-Page" stroke="none" stroke-width="1" fill="none" fill-rule="evenodd">
        <g jetway-hook-id="7F411933-0D69-47FD-9854-2AF83BC05A01" id="SMB--Reskin--Icon-Design-Updates-R2" transform="translate(-263.000000, -953.000000)">
            <g jetway-hook-id="9F0026D6-C845-4C62-B476-B20B26EC0A18" id="Group-18" transform="translate(264.000000, 954.000000)">
                <path d="M144,72 C144,32.2355308 111.764469,0 72,0 C32.2355308,0 0,32.2355308 0,72 L144,72 Z" jetway-hook-id="8C43F289-520B-450B-925D-5BA03D19173E" id="Stroke-1" stroke="#34A853"></path>
                <path d="M41.1530377,17 L48,29.1119228 C35.3689279,36.3068348 26.2802226,49.0298147 24.0035969,64 L24.0035969,64 L10,64 C12.3677476,43.8279769 24.3132693,26.5941677 41.1530377,17 L41.1530377,17 Z M102.864655,17 C116.795257,24.9852453 127.38597,38.2147688 132,54.0275421 L132,54.0275421 L118.64972,58 C115.062141,45.7081379 106.829123,35.4255502 96,29.2191249 L96,29.2191249 Z" jetway-hook-id="8639AF7F-5442-44D0-BA07-0999A515DB68" id="Fill-19" fill="#CEEAD6"></path>
                <path d="M102.864655,17 L96,29.2191249 C106.829123,35.4255502 115.062141,45.7081379 118.64972,58 L132,54.0275421 C127.38597,38.2147688 116.795257,24.9852453 102.864655,17" jetway-hook-id="DE188B5B-C610-470D-ACB7-AE389241E583" id="Fill-19-Copy" fill="#0D652D"></path>
                <path d="M96.0965949,28.9985887 C88.9864538,25.0279434 80.7636707,22.7607169 72.0017946,22.7607169 C63.2392007,22.7607169 55.0149819,25.028649 47.9041229,29 L41,17.0273789 C50.1480705,11.9185337 60.728219,9 72.0017946,9 C83.2739345,9 93.8533651,11.917828 103,17.025262 L96.0965949,28.9985887 Z" jetway-hook-id="205FEBF9-ADCF-4227-8021-155692474F57" id="Fill-5" fill="#34A853"></path>
                <path d="M67,47 L66,47 L67,47 Z" jetway-hook-id="455B32BC-4755-4401-A651-F5CE535A0783" id="Fill-13" fill="#5F6368"></path>
            </g>
        </g>
    </g>
</svg>