<?xml version="1.0" encoding="UTF-8"?>
<svg width="97px" height="46px" viewBox="0 0 97 46" version="1.1" xmlns="http://www.w3.org/2000/svg" xmlns:xlink="http://www.w3.org/1999/xlink" jetway-hooks="{}">
    <title>Group 10SMB icons2</title>
    <g jetway-hook-id="9B4EE40A-F85B-4104-9759-7853A5B24A3F" id="SMB-Page" stroke="none" stroke-width="1" fill="none" fill-rule="evenodd">
        <g jetway-hook-id="7F411933-0D69-47FD-9854-2AF83BC05A01" id="SMB--Reskin--Icon-Design-Updates-R2" transform="translate(-523.000000, -2365.000000)" fill="#34A853" fill-rule="nonzero">
            <g jetway-hook-id="EF26AC1A-03A9-44AE-9171-705BEBC23998" id="Group-10" transform="translate(523.000000, 2365.000000)">
                <path d="M75.356875,46 C69.5975,46 64.14125,43.7885714 60.079375,39.6728571 L55.0475,35.25 L61.11,29.9057143 L65.656875,33.8985714 C68.385,36.6014286 71.78,38.0142857 75.4175,38.0142857 C82.935,38.0142857 88.9975,31.9942857 88.9975,24.5 C88.9975,17.0057143 82.935,10.9857143 75.4175,10.9857143 C71.78,10.9857143 68.385,12.3985714 65.778125,14.9171429 L36.799375,39.8571429 C32.919375,43.7271429 27.463125,46 21.70375,46 C9.7,46 0,36.3557143 0,24.5 C0,12.6442857 9.7,3 21.643125,3 C27.4025,3 32.85875,5.21142857 36.920625,9.32714286 L41.9525,13.75 L35.89,19.0942857 L31.343125,15.1014286 C28.615,12.3985714 25.22,10.9857143 21.5825,10.9857143 C14.065,10.9857143 8.0025,17.0057143 8.0025,24.5 C8.0025,31.9942857 14.065,38.0142857 21.5825,38.0142857 C25.22,38.0142857 28.615,36.6014286 31.221875,34.0828571 L60.200625,9.14285714 C64.080625,5.27285714 69.536875,3 75.29625,3 C87.3,3 97,12.6442857 97,24.5 C97,36.3557143 87.3,46 75.356875,46 Z" jetway-hook-id="04CD9CD4-3E8D-4B0D-BA14-7688A3E7EAA9" id="Path-Copy-2"></path>
            </g>
        </g>
    </g>
</svg>