<?xml version="1.0" encoding="UTF-8"?>
<svg width="78px" height="68px" viewBox="0 0 78 68" version="1.1" xmlns="http://www.w3.org/2000/svg" xmlns:xlink="http://www.w3.org/1999/xlink" jetway-hooks="{}">
    <title>33-schedulehomeworktimeoutSMB icons2</title>
    <g jetway-hook-id="9B4EE40A-F85B-4104-9759-7853A5B24A3F" id="SMB-Page" stroke="none" stroke-width="1" fill="none" fill-rule="evenodd">
        <g jetway-hook-id="7F411933-0D69-47FD-9854-2AF83BC05A01" id="SMB--Reskin--Icon-Design-Updates-R2" transform="translate(-256.000000, -2354.000000)">
            <g jetway-hook-id="236C7C6D-97DF-4D31-95CF-3BC9DDAEEEEA" id="33-schedulehomeworktimeout" transform="translate(256.000000, 2354.000000)">
                <g jetway-hook-id="20C33BFE-BC17-4862-9E1C-9118E3319789">
                    <path d="M45.5,51.6986301 C45.5,60.7008219 52.7761765,68 61.75,68 C70.7238235,68 78,60.7008219 78,51.6986301 C78,42.6964384 70.7238235,35.3972603 61.75,35.3972603 C52.7761765,35.3972603 45.5,42.6964384 45.5,51.6986301 Z" jetway-hook-id="38F0E34B-C0F0-48F1-8800-64920E562D00" id="Fill-2" fill="#34A853"></path>
                    <polygon jetway-hook-id="AAF40AB8-5853-469A-AFBE-06E0240CB78A" id="Fill-4" fill="#CEEAD6" points="26.9285714 31.6712329 36.2142857 31.6712329 36.2142857 22.3561644 26.9285714 22.3561644"></polygon>
                    <polygon jetway-hook-id="5A0DD155-7B6E-43A2-B7AE-C6E94AC503C5" id="Fill-6" fill="#CEEAD6" points="41.7857143 31.6712329 51.0714286 31.6712329 51.0714286 22.3561644 41.7857143 22.3561644"></polygon>
                    <polygon jetway-hook-id="8F8F3466-110A-41B8-994F-731E254C5C74" id="Fill-7" fill="#CEEAD6" points="12.0714286 31.6712329 21.3571429 31.6712329 21.3571429 22.3561644 12.0714286 22.3561644"></polygon>
                    <polygon jetway-hook-id="35D10A06-E30B-48A1-95AB-A1BA015AE850" id="Fill-8" fill="#CEEAD6" points="26.9285714 45.6438356 36.2142857 45.6438356 36.2142857 36.3287671 26.9285714 36.3287671"></polygon>
                    <polygon jetway-hook-id="71F1FBD5-3681-4DA9-801E-1378F86D7716" id="Fill-9" fill="#CEEAD6" points="12.0714286 45.6438356 21.3571429 45.6438356 21.3571429 36.3287671 12.0714286 36.3287671"></polygon>
                    <path d="M62.2347143,31.6248893 C62.5411429,31.6248893 62.8401429,31.6582567 63.1428571,31.6693791 L63.1428571,18.630137 L61.2857143,18.630137 L61.2857143,31.6712329 C61.6032857,31.6582567 61.9152857,31.6248893 62.2347143,31.6248893" jetway-hook-id="3F4DEBB9-9400-486E-BFAB-06FCB3724BBD" id="Fill-10" fill="#34A853"></path>
                    <path d="M41.7857143,51.18102 L1.89616165,51.18102 L1.89616165,18.630137 L0,18.630137 L0,53.0958904 L41.7838181,53.0958904 C41.770545,52.7837665 41.7364141,52.4754724 41.7364141,52.1595188 C41.7364141,51.8282462 41.770545,51.5065479 41.7857143,51.18102 Z" jetway-hook-id="455A8717-07C6-48B2-845B-4D5797216B85" id="Fill-11" fill="#34A853"></path>
                    <path d="M50.1428571,36.3287671 L41.7857143,36.3287671 L41.7857143,45.6438356 L42.9823139,45.6438356 C44.3580223,41.8712329 46.8769787,38.6314521 50.1428571,36.3287671" jetway-hook-id="1612844B-F1E5-4051-B24A-45DBB5CE3EAC" id="Fill-12" fill="#CEEAD6"></path>
                    <polygon jetway-hook-id="6C72734C-F286-44D2-985A-E60A18BE5971" id="Fill-13" fill="#34A853" points="53.7164502 5.5890411 53.7164502 9.31506849 53.7164502 11.1780822 51.8311688 11.1780822 49.9458874 11.1780822 48.0606061 11.1780822 48.0606061 9.31506849 48.0606061 5.5890411 16.0108225 5.5890411 16.0108225 9.31506849 16.0108225 11.1780822 14.1255411 11.1780822 12.2402597 11.1780822 10.3549784 11.1780822 10.3549784 9.31506849 10.3549784 5.5890411 0.928571429 5.5890411 0.928571429 14.9041096 63.1428571 14.9041096 63.1428571 5.5890411"></polygon>
                    <polygon jetway-hook-id="0028531E-2C19-4CFD-938A-4377FC11BE49" id="Fill-14" fill="#188038" points="12.0714286 9.31506849 13.9285714 9.31506849 13.9285714 0 12.0714286 0"></polygon>
                    <polygon jetway-hook-id="36ED3371-2ED0-443D-B536-391F127B57F3" id="Fill-15" fill="#188038" points="50.1428571 9.31506849 52 9.31506849 52 0 50.1428571 0"></polygon>
                    <polygon jetway-hook-id="E8BFF9DA-81FB-4F0A-B283-B3BECD30941A" id="Fill-16" fill="#FFFFFF" points="58.1219144 58.6849315 67.7857143 48.9667632 65.4039741 46.5753425 55.7142857 56.261898"></polygon>
                    <polygon jetway-hook-id="9EB85B62-3EA8-4259-BE51-66FC1E7CCBA6" id="Fill-17" fill="#FFFFFF" points="54.4153767 57.7534247 53.8571429 60.5479452 56.6428571 59.9890411"></polygon>
                    <polygon jetway-hook-id="C859FDEB-1425-4D7D-82D2-62017240FF2F" id="Fill-18" fill="#FFFFFF" points="69.1624379 47.5068493 70.5714286 46.0916063 68.2679261 43.7808219 66.8571429 45.1960649"></polygon>
                </g>
            </g>
        </g>
    </g>
</svg>