<svg data-v-423bf9ae="" xmlns="http://www.w3.org/2000/svg" viewBox="0 0 526 91" class="iconLeft"><!----><!----><!----><g data-v-423bf9ae="" id="ad20aef0-24a3-469a-bb53-09b83a522a98" fill="black" transform="matrix(4.474272727966309,0,0,4.474272727966309,106.80138397216797,-1.9115315675735474)"><path d="M0.84 13.87L0.84 13.87L0.84 13.87Q0.74 14.18 0.40 14.18L0.40 14.18L0.40 14.18Q0.06 14.18-0.38 13.80L-0.38 13.80L-0.38 13.80Q0.04 12.57 1.40 9.84L1.40 9.84L1.40 9.84Q2.76 7.10 3.16 5.74L3.16 5.74L3.16 5.74Q3.22 5.52 3.22 5.43L3.22 5.43L3.22 5.43Q3.22 5.22 2.91 4.79L2.91 4.79L2.80 4.63L2.83 4.45L2.83 4.45Q4.02 4.12 5.46 4.12L5.46 4.12L6.31 4.17L6.31 4.17Q6.47 4.38 6.55 4.82L6.55 4.82L6.55 4.82Q6.78 5.88 6.78 10.29L6.78 10.29L6.78 10.29Q6.78 12.00 7.07 12.70L7.07 12.70L7.07 12.70Q7.18 12.96 7.29 12.96L7.29 12.96L7.29 12.96Q7.41 12.96 7.98 12.68L7.98 12.68L8.16 12.60L8.44 13.10L8.44 13.10Q7.91 13.62 7.26 13.92L7.26 13.92L7.26 13.92Q6.61 14.22 6.06 14.22L6.06 14.22L6.06 14.22Q4.65 14.22 4.65 12.03L4.65 12.03L4.65 10.92L4.65 10.92Q4.28 10.84 3.54 10.84L3.54 10.84L3.54 10.84Q2.80 10.84 1.92 10.98L1.92 10.98L1.92 10.98Q1.22 12.60 0.84 13.87ZM2.37 9.97L4.68 9.97L4.69 8.34L4.69 8.34Q4.69 6.22 4.51 5.46L4.51 5.46L4.51 5.46Q4.40 5.46 4.34 5.49L4.34 5.49L4.34 5.49Q3.95 6.57 3.60 7.32L3.60 7.32L3.60 7.32Q3.26 8.06 2.86 8.91L2.86 8.91L2.86 8.91Q2.46 9.76 2.37 9.97L2.37 9.97ZM8.86 14.10L8.86 14.10L8.60 14.10L8.60 14.10Q8.60 13.44 9.00 11.58L9.00 11.58L9.00 11.58Q9.39 9.72 9.39 9.46L9.39 9.46L9.39 9.46Q9.39 9.00 9.00 8.48L9.00 8.48L8.88 8.32L8.89 8.13L8.89 8.13Q9.65 7.92 11.31 7.92L11.31 7.92L11.31 7.92Q11.49 8.16 11.51 8.79L11.51 8.79L11.51 8.79Q12.73 7.85 13.57 7.85L13.57 7.85L13.57 7.85Q14.07 7.85 14.37 8.20L14.37 8.20L14.37 8.20Q14.67 8.55 14.67 9.08L14.67 9.08L14.67 9.08Q14.67 9.60 14.35 10.89L14.35 10.89L14.35 10.89Q14.03 12.18 14.03 12.62L14.03 12.62L14.03 12.62Q14.03 13.06 14.14 13.06L14.14 13.06L14.14 13.06Q14.22 13.06 14.73 12.80L14.73 12.80L14.90 12.71L15.15 13.20L15.15 13.20Q15.02 13.31 14.81 13.48L14.81 13.48L14.81 13.48Q14.60 13.65 14.04 13.94L14.04 13.94L14.04 13.94Q13.47 14.22 13.02 14.22L13.02 14.22L13.02 14.22Q12.00 14.22 12.00 13.06L12.00 13.06L12.00 13.06Q12.00 12.57 12.31 11.26L12.31 11.26L12.31 11.26Q12.63 9.94 12.63 9.56L12.63 9.56L12.63 9.56Q12.63 9.18 12.39 9.18L12.39 9.18L12.39 9.18Q11.98 9.18 11.40 9.53L11.40 9.53L11.40 9.53Q11.35 9.77 11.12 10.79L11.12 10.79L11.12 10.79Q10.63 12.99 10.63 13.90L10.63 13.90L10.63 13.90Q10.14 14.10 8.86 14.10ZM17.56 14.22L17.56 14.22L17.56 14.22Q16.59 14.22 16.04 13.55L16.04 13.55L16.04 13.55Q15.50 12.87 15.50 11.65L15.50 11.65L15.50 11.65Q15.50 10.09 16.33 8.97L16.33 8.97L16.33 8.97Q17.16 7.85 18.63 7.85L18.63 7.85L19.14 7.88L19.14 7.88Q19.38 7.76 19.67 7.76L19.67 7.76L19.67 7.76Q20.78 7.76 20.78 9.84L20.78 9.84L20.78 9.84Q21.35 9.81 21.94 9.69L21.94 9.69L22.16 9.63L22.25 10.18L22.25 10.18Q21.78 10.37 21 10.53L21 10.53L20.72 10.58L20.72 10.58Q20.45 12.05 19.64 13.14L19.64 13.14L19.64 13.14Q18.83 14.22 17.56 14.22ZM18.31 13.02L18.31 13.02L18.31 13.02Q18.90 13.02 19.37 12.26L19.37 12.26L19.37 12.26Q19.84 11.51 20.02 10.67L20.02 10.67L20.02 10.67Q18.52 10.67 18.52 9.55L18.52 9.55L18.52 9.55Q18.52 9.10 18.70 8.71L18.70 8.71L18.77 8.57L18.77 8.57Q18.72 8.54 18.63 8.54L18.63 8.54L18.63 8.54Q18.55 8.54 18.51 8.57L18.51 8.57L18.51 8.57Q18.16 8.79 17.85 9.62L17.85 9.62L17.85 9.62Q17.54 10.44 17.54 11.51L17.54 11.51L17.54 11.51Q17.54 13.02 18.31 13.02ZM21.49 14.10L21.49 14.10L21.22 14.10L21.22 14.10Q21.22 13.44 21.62 11.58L21.62 11.58L21.62 11.58Q22.02 9.72 22.02 9.46L22.02 9.46L22.02 9.46Q22.02 9.00 21.63 8.48L21.63 8.48L21.50 8.32L21.52 8.13L21.52 8.13Q22.27 7.92 23.94 7.92L23.94 7.92L23.94 7.92Q24.12 8.16 24.14 8.79L24.14 8.79L24.14 8.79Q25.35 7.85 26.19 7.85L26.19 7.85L26.19 7.85Q26.70 7.85 27.00 8.20L27.00 8.20L27.00 8.20Q27.30 8.55 27.30 9.08L27.30 9.08L27.30 9.08Q27.30 9.60 26.98 10.89L26.98 10.89L26.98 10.89Q26.66 12.18 26.66 12.62L26.66 12.62L26.66 12.62Q26.66 13.06 26.77 13.06L26.77 13.06L26.77 13.06Q26.85 13.06 27.36 12.80L27.36 12.80L27.52 12.71L27.78 13.20L27.78 13.20Q27.65 13.31 27.44 13.48L27.44 13.48L27.44 13.48Q27.23 13.65 26.66 13.94L26.66 13.94L26.66 13.94Q26.10 14.22 25.65 14.22L25.65 14.22L25.65 14.22Q24.63 14.22 24.63 13.06L24.63 13.06L24.63 13.06Q24.63 12.57 24.94 11.26L24.94 11.26L24.94 11.26Q25.26 9.94 25.26 9.56L25.26 9.56L25.26 9.56Q25.26 9.18 25.02 9.18L25.02 9.18L25.02 9.18Q24.61 9.18 24.02 9.53L24.02 9.53L24.02 9.53Q23.98 9.77 23.74 10.79L23.74 10.79L23.74 10.79Q23.25 12.99 23.25 13.90L23.25 13.90L23.25 13.90Q22.76 14.10 21.49 14.10ZM30.14 15.57L30.14 15.57L30.14 15.57Q29.67 15.85 29.67 16.11L29.67 16.11L29.67 16.11Q29.67 16.38 29.97 16.38L29.97 16.38L29.97 16.38Q30.27 16.38 30.65 16.09L30.65 16.09L30.65 16.09Q31.02 15.81 31.28 15.16L31.28 15.16L31.28 15.16Q30.60 15.29 30.14 15.57ZM29.46 14.11L29.46 14.11L29.46 14.11Q28.28 14.11 28.28 12.82L28.28 12.82L28.28 12.82Q28.28 12.52 28.56 11.05L28.56 11.05L28.56 11.05Q28.84 9.58 28.84 8.60L28.84 8.60L28.84 8.60Q28.84 8.39 28.78 8.20L28.78 8.20L28.78 8.20Q29.54 7.91 30.86 7.91L30.86 7.91L30.86 7.91Q30.93 8.11 30.93 8.58L30.93 8.58L30.93 8.58Q30.93 9.06 30.62 10.56L30.62 10.56L30.62 10.56Q30.31 12.05 30.31 12.49L30.31 12.49L30.31 12.49Q30.31 12.92 30.67 12.92L30.67 12.92L30.67 12.92Q31.11 12.92 31.72 12.49L31.72 12.49L31.72 12.49Q31.79 11.66 32.28 8.13L32.28 8.13L32.28 8.13Q32.77 7.94 34.05 7.94L34.05 7.94L34.31 7.94L34.31 7.94Q34.05 8.99 33.80 10.96L33.80 10.96L33.80 10.96Q33.54 12.94 33.39 13.71L33.39 13.71L33.39 13.71Q33.10 15.25 32.30 16.22L32.30 16.22L32.30 16.22Q31.51 17.19 30.24 17.19L30.24 17.19L30.24 17.19Q29.74 17.19 29.32 16.93L29.32 16.93L29.32 16.93Q28.91 16.66 28.91 16.24L28.91 16.24L28.91 16.24Q28.91 15.68 29.60 15.22L29.60 15.22L29.60 15.22Q30.28 14.76 31.44 14.50L31.44 14.50L31.44 14.50Q31.57 13.89 31.64 13.31L31.64 13.31L31.64 13.31Q30.51 14.11 29.46 14.11ZM35.00 14.10L35.00 14.10L34.73 14.10L34.73 14.10Q34.73 13.44 35.13 11.58L35.13 11.58L35.13 11.58Q35.53 9.72 35.53 9.46L35.53 9.46L35.53 9.46Q35.53 9.00 35.14 8.48L35.14 8.48L35.01 8.32L35.03 8.13L35.03 8.13Q35.78 7.92 37.45 7.92L37.45 7.92L37.45 7.92Q37.65 8.19 37.65 8.79L37.65 8.79L37.65 8.79Q38.91 7.85 39.65 7.85L39.65 7.85L39.65 7.85Q40.59 7.85 40.75 8.82L40.75 8.82L40.75 8.82Q41.13 8.51 41.74 8.18L41.74 8.18L41.74 8.18Q42.35 7.85 42.83 7.85L42.83 7.85L42.83 7.85Q43.32 7.85 43.64 8.17L43.64 8.17L43.64 8.17Q43.96 8.48 43.96 9.04L43.96 9.04L43.96 9.04Q43.96 9.60 43.65 10.89L43.65 10.89L43.65 10.89Q43.34 12.18 43.34 12.62L43.34 12.62L43.34 12.62Q43.34 13.06 43.47 13.06L43.47 13.06L43.47 13.06Q43.55 13.06 44.04 12.80L44.04 12.80L44.20 12.71L44.45 13.20L44.45 13.20Q44.09 13.57 43.46 13.90L43.46 13.90L43.46 13.90Q42.84 14.22 42.36 14.22L42.36 14.22L42.36 14.22Q41.31 14.22 41.31 13.03L41.31 13.03L41.31 13.03Q41.31 12.60 41.62 11.29L41.62 11.29L41.62 11.29Q41.92 9.98 41.92 9.58L41.92 9.58L41.92 9.58Q41.92 9.18 41.68 9.18L41.68 9.18L41.68 9.18Q41.27 9.18 40.75 9.49L40.75 9.49L40.75 9.49Q40.73 9.77 40.37 11.40L40.37 11.40L40.37 11.40Q40.01 13.02 40.01 13.92L40.01 13.92L40.01 13.92Q39.61 14.10 38.11 14.10L38.11 14.10L38.11 14.10Q38.08 13.94 38.08 13.36L38.08 13.36L38.08 13.36Q38.08 12.77 38.41 11.35L38.41 11.35L38.41 11.35Q38.74 9.94 38.74 9.56L38.74 9.56L38.74 9.56Q38.74 9.18 38.47 9.18L38.47 9.18L38.47 9.18Q38.05 9.18 37.55 9.52L37.55 9.52L37.55 9.52Q37.52 9.65 37.27 10.75L37.27 10.75L37.27 10.75Q36.76 12.96 36.76 13.90L36.76 13.90L36.76 13.90Q36.27 14.10 35.00 14.10ZM46.86 14.22L46.86 14.22L46.86 14.22Q45.89 14.22 45.35 13.55L45.35 13.55L45.35 13.55Q44.80 12.87 44.80 11.65L44.80 11.65L44.80 11.65Q44.80 10.09 45.63 8.97L45.63 8.97L45.63 8.97Q46.47 7.85 47.94 7.85L47.94 7.85L48.44 7.88L48.44 7.88Q48.68 7.76 48.97 7.76L48.97 7.76L48.97 7.76Q50.08 7.76 50.08 9.84L50.08 9.84L50.08 9.84Q50.65 9.81 51.24 9.69L51.24 9.69L51.46 9.63L51.55 10.18L51.55 10.18Q51.09 10.37 50.30 10.53L50.30 10.53L50.02 10.58L50.02 10.58Q49.76 12.05 48.94 13.14L48.94 13.14L48.94 13.14Q48.13 14.22 46.86 14.22ZM47.61 13.02L47.61 13.02L47.61 13.02Q48.20 13.02 48.67 12.26L48.67 12.26L48.67 12.26Q49.14 11.51 49.32 10.67L49.32 10.67L49.32 10.67Q47.82 10.67 47.82 9.55L47.82 9.55L47.82 9.55Q47.82 9.10 48.01 8.71L48.01 8.71L48.08 8.57L48.08 8.57Q48.02 8.54 47.94 8.54L47.94 8.54L47.94 8.54Q47.85 8.54 47.81 8.57L47.81 8.57L47.81 8.57Q47.46 8.79 47.15 9.62L47.15 9.62L47.15 9.62Q46.84 10.44 46.84 11.51L46.84 11.51L46.84 11.51Q46.84 13.02 47.61 13.02ZM50.60 13.00L50.60 13.00L50.60 13.00Q50.60 12.40 50.96 10.96L50.96 10.96L50.96 10.96Q51.32 9.51 51.32 9.18L51.32 9.18L51.32 9.18Q51.32 8.85 50.82 8.30L50.82 8.30L50.83 8.12L50.83 8.12Q51.79 7.92 53.34 7.92L53.34 7.92L53.34 7.92Q53.41 8.11 53.41 8.58L53.41 8.58L53.41 8.58Q53.41 9.06 53.02 10.61L53.02 10.61L53.02 10.61Q52.63 12.17 52.63 12.54L52.63 12.54L52.63 12.54Q52.63 12.92 52.91 12.92L52.91 12.92L52.91 12.92Q53.31 12.92 53.84 12.63L53.84 12.63L53.84 12.63Q53.90 12.29 54.12 11.34L54.12 11.34L54.12 11.34Q54.63 9.10 54.63 8.13L54.63 8.13L54.63 8.13Q55.12 7.94 56.39 7.94L56.39 7.94L56.66 7.94L56.66 7.94Q56.66 8.60 56.27 10.51L56.27 10.51L56.27 10.51Q55.87 12.42 55.87 12.75L55.87 12.75L55.87 12.75Q55.87 13.08 56.01 13.08L56.01 13.08L56.01 13.08Q56.10 13.08 56.81 12.74L56.81 12.74L57.08 13.19L57.08 13.19Q55.83 14.22 54.89 14.22L54.89 14.22L54.89 14.22Q54.45 14.22 54.13 13.97L54.13 13.97L54.13 13.97Q53.82 13.72 53.77 13.31L53.77 13.31L53.77 13.31Q52.64 14.24 51.72 14.24L51.72 14.24L51.72 14.24Q51.23 14.24 50.91 13.92L50.91 13.92L50.91 13.92Q50.60 13.59 50.60 13.00ZM61.80 12.22L61.80 12.22L61.80 12.22Q61.80 13.10 61.02 13.66L61.02 13.66L61.02 13.66Q60.24 14.22 59.25 14.22L59.25 14.22L59.25 14.22Q58.25 14.22 57.67 13.80L57.67 13.80L57.67 13.80Q57.09 13.38 57.09 13.06L57.09 13.06L57.09 13.06Q57.09 12.87 57.58 12.43L57.58 12.43L57.58 12.43Q58.07 11.98 58.41 11.89L58.41 11.89L58.41 11.89Q59.11 12.40 59.56 13.52L59.56 13.52L59.56 13.52Q60.07 13.48 60.07 13.03L60.07 13.03L60.07 13.03Q60.07 12.39 58.94 11.21L58.94 11.21L58.94 11.21Q57.81 10.02 57.81 9.32L57.81 9.32L57.81 9.32Q57.81 8.62 58.44 8.24L58.44 8.24L58.44 8.24Q59.07 7.85 59.96 7.85L59.96 7.85L59.96 7.85Q60.84 7.85 61.29 8.17L61.29 8.17L61.29 8.17Q61.74 8.48 61.74 9.02L61.74 9.02L61.74 9.02Q61.74 9.56 60.89 10.51L60.89 10.51L60.89 10.51Q60.98 10.61 61.14 10.77L61.14 10.77L61.14 10.77Q61.29 10.93 61.54 11.38L61.54 11.38L61.54 11.38Q61.80 11.83 61.80 12.22ZM60.45 10.02L60.45 10.02Q61.04 9.52 61.04 9.03L61.04 9.03L61.04 9.03Q61.04 8.54 60.37 8.54L60.37 8.54L60.37 8.54Q60.05 8.54 59.84 8.67L59.84 8.67L59.84 8.67Q59.63 8.81 59.63 8.97L59.63 8.97L59.63 8.97Q59.63 9.28 60.24 9.84L60.24 9.84L60.45 10.02ZM68.11 4.19L68.11 4.19L70.85 4.27L72.30 4.24L72.30 4.24Q72.34 4.45 72.34 4.80L72.34 4.80L72.34 4.80Q72.34 5.15 72.23 5.31L72.23 5.31L72.23 5.31Q72.13 5.46 71.88 5.46L71.88 5.46L71.88 5.46Q71.62 5.46 70.81 5.39L70.81 5.39L70.81 5.39Q69.99 5.32 69.59 5.32L69.59 5.32L69.09 5.35L69.09 5.35Q69.03 5.88 68.42 8.75L68.42 8.75L68.42 8.75Q69.48 8.65 70.20 8.65L70.20 8.65L70.20 8.65Q70.91 8.65 71.30 8.76L71.30 8.76L71.30 8.76Q71.27 9.35 71.05 9.77L71.05 9.77L71.05 9.77Q70.45 9.65 69.62 9.65L69.62 9.65L69.62 9.65Q68.80 9.65 68.22 9.73L68.22 9.73L68.22 9.73Q67.70 12.26 67.70 13.58L67.70 13.58L67.70 13.82L67.70 13.82Q67.20 14.10 65.58 14.10L65.58 14.10L65.44 14.10L65.44 14.10Q65.44 13.15 66.09 10.14L66.09 10.14L66.09 10.14Q66.74 7.13 66.88 5.81L66.88 5.81L66.88 5.81Q66.88 5.59 66.74 5.27L66.74 5.27L66.74 5.27Q66.60 4.96 66.44 4.76L66.44 4.76L66.30 4.56L66.35 4.35L66.35 4.35Q67.10 4.20 68.11 4.19ZM74.87 8.72L74.87 8.72L74.87 8.72Q74.87 9.31 74.49 10.75L74.49 10.75L74.49 10.75Q74.12 12.18 74.12 12.62L74.12 12.62L74.12 12.62Q74.12 13.06 74.24 13.06L74.24 13.06L74.24 13.06Q74.33 13.06 74.89 12.80L74.89 12.80L75.05 12.71L75.29 13.20L75.29 13.20Q75.17 13.31 74.96 13.48L74.96 13.48L74.96 13.48Q74.75 13.65 74.17 13.94L74.17 13.94L74.17 13.94Q73.60 14.22 73.11 14.22L73.11 14.22L73.11 14.22Q72.62 14.22 72.34 13.92L72.34 13.92L72.34 13.92Q72.06 13.62 72.06 13.11L72.06 13.11L72.06 13.11Q72.06 12.60 72.41 11.29L72.41 11.29L72.41 11.29Q72.76 9.98 72.76 9.59L72.76 9.59L72.76 9.59Q72.76 9.00 72.39 8.48L72.39 8.48L72.27 8.32L72.28 8.13L72.28 8.13Q73.02 7.92 74.69 7.92L74.69 7.92L74.69 7.92Q74.87 8.13 74.87 8.72ZM73.28 6.39L73.28 6.39L73.28 6.39Q73.00 6.12 73.00 5.66L73.00 5.66L73.00 5.66Q73.00 5.19 73.38 4.84L73.38 4.84L73.38 4.84Q73.77 4.49 74.27 4.49L74.27 4.49L74.27 4.49Q74.77 4.49 75.05 4.77L75.05 4.77L75.05 4.77Q75.33 5.05 75.33 5.51L75.33 5.51L75.33 5.51Q75.33 5.96 74.94 6.31L74.94 6.31L74.94 6.31Q74.54 6.66 74.05 6.66L74.05 6.66L74.05 6.66Q73.56 6.66 73.28 6.39ZM79.41 4.28L79.41 4.28L79.41 4.28Q79.41 5.35 78.69 8.46L78.69 8.46L78.69 8.46Q79.53 7.85 80.21 7.85L80.21 7.85L80.21 7.85Q80.89 7.85 81.38 8.42L81.38 8.42L81.38 8.42Q81.86 8.99 81.86 10.15L81.86 10.15L81.86 10.15Q81.86 12.10 81.10 13.16L81.10 13.16L81.10 13.16Q80.33 14.22 79.24 14.22L79.24 14.22L79.24 14.22Q78.83 14.22 78.42 14.13L78.42 14.13L78.42 14.13Q78.01 14.03 77.80 13.92L77.80 13.92L77.59 13.82L77.59 13.82Q76.69 14.13 75.84 14.13L75.84 14.13L75.84 14.13Q75.75 14.06 75.75 13.45L75.75 13.45L75.75 13.45Q75.75 12.84 76.54 9.42L76.54 9.42L76.54 9.42Q77.32 5.99 77.32 4.73L77.32 4.73L77.32 4.73Q77.32 4.51 77.25 4.16L77.25 4.16L77.25 4.16Q78.34 3.78 79.34 3.78L79.34 3.78L79.34 3.78Q79.41 3.98 79.41 4.28ZM79.28 9.04L79.28 9.04L79.28 9.04Q79.02 9.04 78.48 9.30L78.48 9.30L78.48 9.30Q77.84 12.01 77.78 13.19L77.78 13.19L77.78 13.19Q78.20 13.37 78.58 13.37L78.58 13.37L78.58 13.37Q79.11 13.37 79.47 12.39L79.47 12.39L79.47 12.39Q79.83 11.41 79.83 10.23L79.83 10.23L79.83 10.23Q79.83 9.04 79.28 9.04ZM82.45 11.63L82.45 11.63L82.45 11.63Q82.45 9.88 83.50 8.87L83.50 8.87L83.50 8.87Q84.56 7.85 85.90 7.85L85.90 7.85L85.90 7.85Q86.73 7.85 87.26 8.26L87.26 8.26L87.26 8.26Q87.79 8.67 87.79 9.35L87.79 9.35L87.79 9.35Q87.79 10.02 87.45 10.49L87.45 10.49L87.45 10.49Q87.11 10.95 86.62 11.20L86.62 11.20L86.62 11.20Q85.62 11.69 84.80 11.82L84.80 11.82L84.46 11.86L84.46 11.86Q84.56 13.17 85.54 13.17L85.54 13.17L85.54 13.17Q85.88 13.17 86.25 13.01L86.25 13.01L86.25 13.01Q86.63 12.84 86.84 12.67L86.84 12.67L87.05 12.50L87.39 12.95L87.39 12.95Q87.28 13.10 86.94 13.36L86.94 13.36L86.94 13.36Q86.60 13.61 86.31 13.78L86.31 13.78L86.31 13.78Q85.50 14.22 84.53 14.22L84.53 14.22L84.53 14.22Q83.57 14.22 83.01 13.54L83.01 13.54L83.01 13.54Q82.45 12.85 82.45 11.63ZM84.45 11.17L84.45 11.17Q85.16 11.05 85.58 10.57L85.58 10.57L85.58 10.57Q86.00 10.09 86.00 9.34L86.00 9.34L86.00 9.34Q86.00 8.58 85.55 8.58L85.55 8.58L85.55 8.58Q85.02 8.58 84.74 9.49L84.74 9.49L84.74 9.49Q84.45 10.39 84.45 11.17L84.45 11.17ZM88.37 14.10L88.37 14.10L88.27 14.10L88.27 14.10Q88.24 13.99 88.24 13.59L88.24 13.59L88.24 13.59Q88.24 13.19 88.62 11.44L88.62 11.44L88.62 11.44Q89.00 9.69 89.00 9.44L89.00 9.44L89.00 9.44Q89.00 9.00 88.61 8.48L88.61 8.48L88.48 8.32L88.49 8.13L88.49 8.13Q89.25 7.92 90.92 7.92L90.92 7.92L90.92 7.92Q91.08 8.29 91.08 8.95L91.08 8.95L91.08 8.95Q91.24 8.69 91.73 8.27L91.73 8.27L91.73 8.27Q92.22 7.85 92.74 7.85L92.74 7.85L92.74 7.85Q93.49 7.85 93.49 9.17L93.49 9.17L93.49 9.17Q93.42 9.25 93.30 9.39L93.30 9.39L93.30 9.39Q93.18 9.52 92.83 9.76L92.83 9.76L92.83 9.76Q92.47 10.00 92.13 10.05L92.13 10.05L92.13 10.05Q92.12 10.05 91.90 9.67L91.90 9.67L91.90 9.67Q91.67 9.30 91.56 9.30L91.56 9.30L91.56 9.30Q91.21 9.42 90.94 9.72L90.94 9.72L90.94 9.72Q90.30 12.61 90.30 13.47L90.30 13.47L90.30 13.47Q90.30 13.78 90.31 13.90L90.31 13.90L90.31 13.90Q89.82 14.10 88.37 14.10Z"></path></g><!----><g data-v-423bf9ae="" id="a3becab1-8ada-4f3e-88ed-fe0c1228d04e" transform="matrix(1.0000135898590088,0,0,1.0000135898590088,-6.5506792068481445,-4.0012898445129395)" stroke="none" fill="black"><path d="M48.1 52.1c17.4 0 37.5-4 39.3-7.6S65 36.1 65 36.1c-5.8 2.7-17 2.7-17 2.7s-11.2 0-17-2.7c0 0-24.1 4.9-22.3 8.5 1.9 3.5 21.5 7.5 39.4 7.5zM63.1 29.2S59.7 9.8 57.2 6c-2.5-3.8-6.3 4.5-10.2 4.5-3.9 0-4.8-5.3-8.3-5.5-3.6-.2-7.1 24.2-7.1 24.2s18.4 4.2 31.5 0zM31.5 53.3s-1.6 7.4 8 7.6c0 0 3.7 0 5.6-3.3.6-1 1.5-1.6 2.7-1.6h.4c1.1 0 2.1.6 2.7 1.6 1.9 3.3 5.6 3.3 5.6 3.3 9.6-.2 8-7.6 8-7.6-4.4 1.5-11.3 1.4-13.7 1.3h-4.7c.1-.1-9.2.4-14.6-1.3zM27.7 53.3l-7.4-1.1-12.8 11h1.2c5.7 0 20.8 4.8 20.8 4.8l-8 6.9c6 1.2 24.9 11.3 24.9 11.3l1.8-6.6C33.1 68.5 27.7 53.3 27.7 53.3z"></path><path d="M92.6 62.9L77.1 52.1l-8.3 1.1c.5 2.7-1.2 7.6-1.2 7.6-23.9 18.1-20 34.2-20 34.2C57.1 76.2 78 73.6 78 73.6l-9.5-4.5c6.2-3.9 24.1-6.2 24.1-6.2z"></path></g><!----></svg>